<svg id="visual" viewBox="0 0 900 600" width="900" height="600" xmlns="http://www.w3.org/2000/svg" xmlns:xlink="http://www.w3.org/1999/xlink" version="1.1"><path d="M0 491L12.5 490.2C25 489.3 50 487.7 75 486.3C100 485 125 484 150 477.7C175 471.3 200 459.7 225 454.2C250 448.7 275 449.3 300 453.5C325 457.7 350 465.3 375 468.7C400 472 425 471 450 473.5C475 476 500 482 525 480.2C550 478.3 575 468.7 600 468.3C625 468 650 477 675 475.8C700 474.7 725 463.3 750 458.8C775 454.3 800 456.7 825 457.2C850 457.7 875 456.3 887.5 455.7L900 455L900 601L887.5 601C875 601 850 601 825 601C800 601 775 601 750 601C725 601 700 601 675 601C650 601 625 601 600 601C575 601 550 601 525 601C500 601 475 601 450 601C425 601 400 601 375 601C350 601 325 601 300 601C275 601 250 601 225 601C200 601 175 601 150 601C125 601 100 601 75 601C50 601 25 601 12.5 601L0 601Z" fill="#0c0c0c" stroke-linecap="round" stroke-linejoin="miter"></path></svg>